<svg width="120" height="120" xmlns="http://www.w3.org/2000/svg"><path fill="#fff" d="M-1-1h122v122H-1z"/><g stroke-width="1.5"><path stroke="#e6e6e6" fill="#e6e6e6" d="M0 0h120v120H0z"/><path stroke="#b2b2b2" d="M72.21 49.98s2.16-10 0-13.4c-2.15-3.39-3.01-5.64-7.76-7.26s-3.01-1.3-6.46-1.13c-3.45.16-6.33 2.26-6.33 3.39 0 0-2.15.16-3.02 1.13-.86.97-2.3 5.48-2.3 6.62s.72 8.72 1.44 10.33l-.85.32c-.72 9.36 2.87 10.5 2.87 10.5 1.3 8.71 2.59 5 2.59 7.26s-1.3 1.45-1.3 1.45-1.15 3.55-4.02 4.84c-2.87 1.3-18.82 8.23-20.12 9.69-1.3 1.45-1.15 8.23-1.15 8.23h68.4s.15-6.78-1.15-8.23c-1.3-1.46-17.25-8.4-20.12-9.69-2.87-1.29-4.02-4.84-4.02-4.84s-1.3.8-1.3-1.45 1.3 1.45 2.6-7.27c0 0 3.58-1.13 2.87-10.49h-.87z" fill="#b2b2b2"/></g></svg>