<svg width="120" height="120" xmlns="http://www.w3.org/2000/svg">
 <g>
  <rect fill="#fff" id="canvas_background" height="122" width="122" y="-1" x="-1"/>
  <g display="none" overflow="visible" y="0" x="0" height="100%" width="100%" id="canvasGrid">
   <rect fill="url(#gridpattern)" stroke-width="0" y="0" x="0" height="100%" width="100%"/>
  </g>
 </g>
 <g>
  <rect id="svg_11" height="120" width="120" y="0" x="0" stroke-width="1.5" stroke="#e6e6e6" fill="#e6e6e6"/>
  <path stroke="#b2b2b2" id="svg_9" d="m72.213156,49.981809c0,0 2.155059,-10.007857 0,-13.397983c-2.157598,-3.390126 -3.018098,-5.648309 -7.762274,-7.264963s-3.01556,-1.294464 -6.465177,-1.129092c-3.449618,0.162521 -6.325568,2.258183 -6.325568,3.387275c0,0 -2.155059,0.162521 -3.01556,1.131943c-0.863039,0.969422 -2.299745,5.485788 -2.299745,6.617731s0.718353,8.719096 1.436706,10.332899l-0.855424,0.32219c-0.718353,9.360625 2.873412,10.492568 2.873412,10.492568c1.29202,8.719096 2.586579,5.00678 2.586579,7.264963s-1.294559,1.454133 -1.294559,1.454133s-1.147334,3.549795 -4.020746,4.841408c-2.873412,1.288761 -18.824404,8.228682 -20.121501,9.682816c-1.297097,1.456984 -1.149873,8.234385 -1.149873,8.234385l68.400918,0c0,0 0.149763,-6.777401 -1.147334,-8.234385c-1.299635,-1.456984 -17.250627,-8.394054 -20.124039,-9.682816c-2.873412,-1.291612 -4.020746,-4.841408 -4.020746,-4.841408s-1.294559,0.80405 -1.294559,-1.454133s1.294559,1.454133 2.589117,-7.264963c0,0 3.589227,-1.131943 2.873412,-10.492568l-0.863039,0z" stroke-width="1.5" fill="#b2b2b2"/>
 </g>
</svg>